<svg xmlns="http://www.w3.org/2000/svg" width="933.333" height="933.333" version="1.0" viewBox="0 0 700 700"><path d="M0 350v350h700V0H0v350zM241 66v9h-70V57h70v9zm288 0v9h-70V57h70v9zm-385 97.5V219h-20V108h20v55.5zm144 0V219h-20V108h20v55.5zm144 0V219h-20V108h20v55.5zm144 0V219h-20V108h20v55.5zm-432 144V363h-20V252h20v55.5zm144 0V363h-20V252h20v55.5zm144 0V363h-20V252h20v55.5zm144 0V363h-20V252h20v55.5zm-191 46v9.5h-70v-19h70v9.5zm191 98V507h-20V396h20v55.5zm-359.5-6c11.8 25.2 21.5 46.1 21.5 46.2 0 .2-4.8.2-10.6.1l-10.6-.3-21.4-45.8c-11.8-25.2-21.4-46-21.4-46.3 0-.2 4.7-.3 10.5-.2l10.5.3 21.5 46zm218.3 20.2c-.3 9.8-.3 9.8-6.1 20.5l-5.9 10.8h-9.4c-6.9 0-9.4-.3-9.4-1.3 0-.6 1.4-6.2 3-12.2 2.2-8 3-13.2 3-19.3V456h25.2l-.4 9.7zM313 497.5v9.5h-70v-19h70v9.5zm72 0v9.5h-70v-19h70v9.5zm-169 98V651h-20V540h20v55.5zm310-51.8c-.1.5-9.7 21.3-21.4 46.3l-21.3 45.5-10.7.3c-10 .2-10.6.2-9.8-1.5.5-1 10.3-21.9 21.7-46.6l20.9-44.7h10.3c5.7 0 10.3.3 10.3.7zm-213 97.8v9.5h-70v-19h70v9.5zm72 0v9.5h-70v-19h70v9.5zm72 0v9.5h-70v-19h70v9.5z"/></svg>