<?xml version="1.0" standalone="no"?>
<!DOCTYPE svg PUBLIC "-//W3C//DTD SVG 20010904//EN"
 "http://www.w3.org/TR/2001/REC-SVG-20010904/DTD/svg10.dtd">
<svg version="1.0" xmlns="http://www.w3.org/2000/svg"
 width="700.000000pt" height="700.000000pt" viewBox="0 0 700.000000 700.000000"
 preserveAspectRatio="xMidYMid meet">
<metadata>
Created by potrace 1.14, written by Peter Selinger 2001-2017
</metadata>
<g transform="translate(0.000000,700.000000) scale(0.100000,-0.100000)"
fill="#000000" stroke="none">
<path d="M0 3500 l0 -3500 3500 0 3500 0 0 3500 0 3500 -3500 0 -3500 0 0
-3500z m2410 2840 l0 -90 -350 0 -350 0 0 90 0 90 350 0 350 0 0 -90z m2880 0
l0 -90 -350 0 -350 0 0 90 0 90 350 0 350 0 0 -90z m-3850 -975 l0 -555 -100
0 -100 0 0 555 0 555 100 0 100 0 0 -555z m1440 0 l0 -555 -100 0 -100 0 0
555 0 555 100 0 100 0 0 -555z m1440 0 l0 -555 -100 0 -100 0 0 555 0 555 100
0 100 0 0 -555z m1440 0 l0 -555 -100 0 -100 0 0 555 0 555 100 0 100 0 0
-555z m-4320 -1440 l0 -555 -100 0 -100 0 0 555 0 555 100 0 100 0 0 -555z
m1440 0 l0 -555 -100 0 -100 0 0 555 0 555 100 0 100 0 0 -555z m1440 0 l0
-555 -100 0 -100 0 0 555 0 555 100 0 100 0 0 -555z m1440 0 l0 -555 -100 0
-100 0 0 555 0 555 100 0 100 0 0 -555z m-1910 -460 l0 -95 -350 0 -350 0 0
95 0 95 350 0 350 0 0 -95z m1910 -980 l0 -555 -100 0 -100 0 0 555 0 555 100
0 100 0 0 -555z m-3595 60 c118 -252 215 -461 215 -462 0 -2 -48 -2 -106 -1
l-106 3 -214 458 c-118 252 -214 460 -214 463 0 2 47 3 105 2 l105 -3 215
-460z m2183 -202 c-3 -98 -3 -98 -61 -205 l-59 -108 -94 0 c-69 0 -94 3 -94
13 0 6 14 62 30 122 22 80 30 132 30 193 l0 82 126 0 126 0 -4 -97z m-1218
-318 l0 -95 -350 0 -350 0 0 95 0 95 350 0 350 0 0 -95z m720 0 l0 -95 -350 0
-350 0 0 95 0 95 350 0 350 0 0 -95z m-1690 -980 l0 -555 -100 0 -100 0 0 555
0 555 100 0 100 0 0 -555z m3100 518 c-1 -5 -97 -213 -214 -463 l-213 -455
-107 -3 c-100 -2 -106 -2 -98 15 5 10 103 219 217 466 l209 447 103 0 c57 0
103 -3 103 -7z m-2130 -978 l0 -95 -350 0 -350 0 0 95 0 95 350 0 350 0 0 -95z
m720 0 l0 -95 -350 0 -350 0 0 95 0 95 350 0 350 0 0 -95z m720 0 l0 -95 -350
0 -350 0 0 95 0 95 350 0 350 0 0 -95z"/>
</g>
</svg>
